<mxfile host="65bd71144e">
    <diagram id="fF0ErYZDOh8c472ttAFt" name="第 1 页">
        <mxGraphModel dx="239" dy="360" grid="1" gridSize="10" guides="1" tooltips="1" connect="1" arrows="1" fold="1" page="1" pageScale="1" pageWidth="827" pageHeight="1169" background="#ffffff" math="0" shadow="0">
            <root>
                <mxCell id="0"/>
                <mxCell id="1" parent="0"/>
                <mxCell id="20" style="edgeStyle=none;html=1;strokeColor=#000000;fontColor=#000000;" parent="1" source="2" target="3" edge="1">
                    <mxGeometry relative="1" as="geometry"/>
                </mxCell>
                <mxCell id="2" value="1" style="ellipse;whiteSpace=wrap;html=1;aspect=fixed;fillColor=#d80073;fontColor=#ffffff;strokeColor=#A50040;" parent="1" vertex="1">
                    <mxGeometry x="80" y="110" width="80" height="80" as="geometry"/>
                </mxCell>
                <mxCell id="27" style="edgeStyle=none;html=1;strokeColor=#000000;" parent="1" source="3" target="4" edge="1">
                    <mxGeometry relative="1" as="geometry">
                        <mxPoint x="140" y="280" as="targetPoint"/>
                    </mxGeometry>
                </mxCell>
                <mxCell id="3" value="2" style="ellipse;whiteSpace=wrap;html=1;aspect=fixed;fillColor=#1ba1e2;fontColor=#ffffff;strokeColor=#006EAF;" parent="1" vertex="1">
                    <mxGeometry x="150" y="210" width="80" height="80" as="geometry"/>
                </mxCell>
                <mxCell id="4" value="3" style="ellipse;whiteSpace=wrap;html=1;aspect=fixed;strokeColor=#050505;fillStyle=auto;fillColor=default;" parent="1" vertex="1">
                    <mxGeometry x="210" y="310" width="80" height="80" as="geometry"/>
                </mxCell>
                <mxCell id="18" value="&lt;font color=&quot;#000000&quot;&gt;old_root&lt;/font&gt;" style="text;html=1;align=center;verticalAlign=middle;whiteSpace=wrap;rounded=0;" parent="1" vertex="1">
                    <mxGeometry x="160" y="120" width="60" height="30" as="geometry"/>
                </mxCell>
                <mxCell id="19" value="new_root" style="text;html=1;strokeColor=none;fillColor=none;align=center;verticalAlign=middle;whiteSpace=wrap;rounded=0;fontColor=#000000;labelBackgroundColor=none;" parent="1" vertex="1">
                    <mxGeometry x="220" y="210" width="60" height="30" as="geometry"/>
                </mxCell>
            </root>
        </mxGraphModel>
    </diagram>
</mxfile>